<svg width="1440" height="680" viewBox="0 0 1440 680" fill="none" xmlns="http://www.w3.org/2000/svg">
<path d="M0 263.171V680H1440V275.954C1440 275.954 1387.9 203.473 1339.48 206.482C1289.72 209.575 1297.21 280.338 1248.9 292.071C1210.32 301.438 1186.24 264.256 1148.38 275.954C1111.23 287.429 1116.38 338.303 1077.66 343.202C1052.52 346.384 1039.98 321.726 1015.13 326.529C976.546 333.985 996.702 394 959.61 406.56C923.283 418.861 902.618 372.096 864.935 379.883C824.391 388.261 827.98 439.545 787.792 449.355C740.003 461.019 718.517 399.502 669.74 406.56C634.477 411.662 625.923 448.754 590.26 449.355C543.567 450.14 542.156 383.177 495.584 379.883C462.115 377.516 446.953 414.139 414.351 406.56C375.099 397.436 414.351 358.431 354.156 326.529C293.961 294.627 298.419 361.924 272.338 343.202C249.793 327.019 278.49 293.544 257.143 275.954C229.434 253.122 198.71 305.337 164.805 292.071C127.051 277.299 149.77 220.313 111.623 206.482C65.4473 189.74 0 263.171 0 263.171Z" fill="#2BB7D0"/>
<path d="M0 162.525V680H1440V162.525C1440 162.525 1409.08 120.284 1380.55 118.006C1334.83 114.355 1352.19 199.932 1308.5 214.378C1275.98 225.126 1253.72 190.226 1221.83 202.855C1181.8 218.713 1108.47 239.518 1162.38 298.703C1216.29 357.888 1134.78 351.626 1108.47 377.791C1089.84 396.313 1166.41 485.161 1055.06 418.12C943.709 351.079 1004.65 530.91 943.709 531.776C902.352 532.364 889.841 472.058 849.489 481.495C810.454 490.624 822.142 548.794 784.997 564.249C725.788 588.883 706.088 477.889 642.407 481.495C584.301 484.785 570.967 585.391 516.445 564.249C470.109 546.281 492.573 484.681 459.006 446.927C425.085 408.774 312.89 481.495 349.671 377.791C386.452 274.086 295.9 337.127 279.636 298.703C265.03 264.195 298.253 224.489 268.551 202.855C241.568 183.2 216.752 223.19 184.913 214.378C138.425 201.51 150.969 127.801 103.793 118.006C60.7936 109.078 0 162.525 0 162.525Z" fill="#2384B1"/>
<path d="M0 302.287V680H1472.78C1472.78 680 1543.03 105.182 1472.78 256.322C1453.65 297.47 1479.73 349.036 1436.28 366.238C1396.83 381.859 1375.24 315.204 1334.62 327.767C1300.36 338.363 1303.21 373.444 1275.71 395.716C1246.74 419.182 1199.55 406.21 1191.26 441.681C1181.52 483.33 1274.13 472.47 1275.71 515.125C1277.88 573.486 1150.13 497.339 1124 550.099C1107.28 583.871 1153.8 614.64 1131.82 645.526C1097.1 694.338 1041.2 546.15 990.019 579.077C964.041 595.79 979.633 636.257 949.876 645.526C917.379 655.649 904.8 592.503 873.24 605.057C849.76 614.397 858.572 642.664 838.831 658.017C782.058 702.17 746.883 543.808 677.738 566.586C635.792 580.404 643.568 640.39 599.538 645.526C566.773 649.348 553.001 623.059 520.816 616.049C472.771 605.584 436.586 640.837 394.652 616.049C371.7 602.481 371.003 581.219 348.775 566.586C318.645 546.753 269.302 576.094 258.583 542.604C247.715 508.648 321.665 510.174 321.665 474.656C321.665 439.138 276.362 437.872 258.583 406.708C242.455 378.438 265.29 338.416 233.559 327.767C209.98 319.855 197.546 346.199 172.563 346.253C121.332 346.366 119.939 266.128 68.8165 269.312C38.8331 271.179 0 302.287 0 302.287Z" fill="#0C314C"/>
<path d="M1318.23 61.2493C1307.85 61.944 1299.03 65.9484 1292.27 70.6145C1284.85 75.7332 1279.53 81.8792 1276.81 86.197C1275.73 87.9381 1275.73 90.0622 1276.81 91.8032C1279.53 96.1211 1284.85 102.267 1292.27 107.386C1299.03 112.052 1307.85 116.056 1318.23 116.753L1332.92 126.886C1334.93 128.279 1337.65 128.366 1339.79 127.147C1341.91 125.911 1342.99 123.595 1342.5 121.332L1340.66 112.87C1344.48 111.303 1347.62 109.405 1350.73 107.386C1353.47 105.384 1356.22 103.225 1358.28 101.066L1375.89 110.52C1378.26 111.791 1381.26 111.442 1383.21 109.667C1385.15 107.891 1385.56 105.14 1384.2 102.946L1375.54 89.0001L1384.2 75.0542C1385.56 72.8604 1385.15 70.1096 1383.21 68.3337C1381.26 66.5578 1378.26 66.2096 1375.89 67.4806L1358.28 76.9345C1356.22 74.7756 1353.47 72.6167 1350.73 70.6145C1347.62 68.5948 1344.48 66.6971 1340.66 65.1301L1342.5 56.6651C1342.99 54.3999 1341.91 52.0895 1339.79 50.8586C1337.65 49.6259 1334.93 49.7286 1332.92 51.1145L1318.23 61.2493ZM1306.27 83.4287C1309.62 83.4287 1312.33 85.9184 1312.33 89.0001C1312.33 92.0818 1309.62 94.5715 1306.27 94.5715C1302.92 94.5715 1300.22 92.0818 1300.22 89.0001C1300.22 85.9184 1302.92 83.4287 1306.27 83.4287Z" fill="#2BB7D0"/>
<path d="M246.25 89.2173C255.781 89.91 263.872 93.903 270.069 98.5558C276.875 103.66 281.753 109.788 284.253 114.094C285.243 115.83 285.243 117.948 284.253 119.684C281.753 123.99 276.875 130.118 270.069 135.222C263.872 139.875 255.781 143.868 246.25 144.563L232.778 154.667C230.938 156.056 228.438 156.143 226.476 154.927C224.531 153.695 223.542 151.386 223.993 149.129L225.677 140.691C222.17 139.129 219.288 137.236 216.441 135.222C213.924 133.226 211.406 131.073 209.514 128.92L193.354 138.347C191.182 139.615 188.431 139.268 186.645 137.497C184.859 135.726 184.485 132.983 185.732 130.795L193.681 116.889L185.732 102.983C184.485 100.795 184.859 98.0523 186.645 96.2815C188.431 94.5107 191.182 94.1634 193.354 95.4308L209.514 104.858C211.406 102.705 213.924 100.552 216.441 98.5558C219.288 96.5419 222.17 94.6496 225.677 93.0871L223.993 84.6461C223.542 82.3874 224.531 80.0836 226.476 78.8562C228.438 77.627 230.938 77.7294 232.778 79.1114L246.25 89.2173ZM257.222 111.334C254.149 111.334 251.667 113.816 251.667 116.889C251.667 119.962 254.149 122.445 257.222 122.445C260.295 122.445 262.778 119.962 262.778 116.889C262.778 113.816 260.295 111.334 257.222 111.334Z" fill="#2BB7D0"/>
<path d="M1231.57 196.994L1220.04 211.135C1220.04 211.135 1217.31 197.321 1211.79 189.422C1205.78 180.805 1193.54 180.756 1191.03 171.49C1189.77 166.828 1194.5 164.997 1192.07 160.449C1188.32 153.426 1177.95 162.763 1173.22 156.098C1170.3 151.995 1171.19 144.84 1171.19 144.84C1167.85 138.25 1159.58 138.408 1156.14 131.839C1151.68 123.314 1159.52 111.771 1159.52 111.771C1159.52 111.771 1171.37 133.97 1184.11 142.735C1192.28 148.356 1200.3 144.736 1206.58 152.418C1213.64 161.055 1199.47 169.041 1207.86 176.521C1207.86 176.521 1221.48 173.981 1227.53 180.243C1232.79 185.687 1231.57 196.994 1231.57 196.994Z" fill="#2384B1"/>
<path d="M1238.21 207.997L1220.55 211.202C1220.55 211.202 1227.08 198.815 1227.79 189.114C1228.56 178.53 1219.22 170.397 1223.08 161.64C1225.03 157.234 1229.79 158.96 1230.77 153.87C1232.29 146.009 1218.51 146.298 1219.04 138.058C1219.37 132.986 1224.52 128.093 1224.52 128.093C1226.08 120.833 1219.64 115.481 1221.11 108.174C1223.01 98.6904 1236.23 95.0421 1236.23 95.0421C1236.23 95.0421 1231.45 119.885 1235.73 135.029C1238.48 144.741 1246.89 147.279 1246.9 157.316C1246.91 168.601 1231.07 165.344 1232.83 176.63C1232.83 176.63 1244.85 183.695 1245.57 192.495C1246.2 200.144 1238.21 207.997 1238.21 207.997Z" fill="#2384B1"/>
<path d="M1226.72 203.321L1215.19 189.18C1215.19 189.18 1228.88 188.813 1237.4 184.592C1246.68 179.987 1248.86 167.592 1258.16 166.66C1262.83 166.191 1263.77 171.303 1268.54 169.631C1275.91 167.049 1268.78 154.913 1275.97 151.268C1280.41 149.025 1287.1 151.168 1287.1 151.168C1293.98 148.925 1295.27 140.512 1302.15 138.167C1311.08 135.123 1320.76 145.085 1320.76 145.085C1320.76 145.085 1297.46 153.239 1286.87 164.631C1280.07 171.938 1282.14 180.703 1273.7 185.732C1264.21 191.385 1259.03 175.635 1250.42 182.849C1250.42 182.849 1250.49 197.095 1243.44 202.14C1237.32 206.524 1226.72 203.321 1226.72 203.321Z" fill="#2384B1"/>
<path d="M91.5651 116.994L80.0383 131.135C80.0383 131.135 77.3106 117.321 71.7941 109.422C65.7761 100.805 53.5416 100.756 51.0345 91.4897C49.7732 86.8276 54.5021 84.9967 52.0741 80.449C48.3248 73.4263 37.9526 82.7634 33.2159 76.0978C30.3004 71.995 31.1893 64.8404 31.1893 64.8404C27.848 58.2497 19.5769 58.4077 16.1386 51.8394C11.6758 43.3138 19.5248 31.7713 19.5248 31.7713C19.5248 31.7713 31.37 53.9698 44.1082 62.7346C52.278 68.356 60.3042 64.7359 66.5798 72.418C73.6354 81.0548 59.4675 89.0406 67.8646 96.5209C67.8646 96.5209 81.482 93.9807 87.5303 100.243C92.7877 105.687 91.5651 116.994 91.5651 116.994Z" fill="#2384B1"/>
<path d="M98.2066 127.997L80.5466 131.202C80.5466 131.202 87.0828 118.815 87.7889 109.114C88.5592 98.5305 79.2176 90.3973 83.0831 81.6397C85.0279 77.2336 89.7936 78.9603 90.7733 73.8699C92.2861 66.0092 78.5104 66.2984 79.0439 58.0578C79.3723 52.9857 84.5205 48.0931 84.5205 48.0931C86.0762 40.8334 79.6415 35.4813 81.1088 28.1745C83.0134 18.6904 96.2333 15.0421 96.2333 15.0421C96.2333 15.0421 91.4465 39.8854 95.7318 55.0286C98.4803 64.741 106.889 67.2789 106.9 77.3164C106.912 88.6015 91.0723 85.3438 92.8341 96.6305C92.8341 96.6305 104.852 103.695 105.575 112.495C106.203 120.144 98.2066 127.997 98.2066 127.997Z" fill="#2384B1"/>
<path d="M86.7198 123.321L75.193 109.18C75.193 109.18 88.882 108.813 97.3962 104.592C106.684 99.9874 108.856 87.5925 118.156 86.6599C122.835 86.1906 123.765 91.3028 128.537 89.631C135.906 87.0494 128.775 74.9126 135.974 71.2679C140.406 69.0246 147.096 71.1681 147.096 71.1681C153.981 68.9252 155.266 60.5124 162.146 58.1672C171.077 55.1231 180.756 65.0849 180.756 65.0849C180.756 65.0849 157.463 73.239 146.867 84.6311C140.07 91.9376 142.14 100.703 133.701 105.732C124.214 111.385 119.034 95.6346 110.42 102.849C110.42 102.849 110.486 117.095 103.445 122.14C97.3241 126.524 86.7198 123.321 86.7198 123.321Z" fill="#2384B1"/>
<path d="M491.565 376.994L480.038 391.135C480.038 391.135 477.311 377.321 471.794 369.422C465.776 360.805 453.542 360.756 451.035 351.49C449.773 346.828 454.502 344.997 452.074 340.449C448.325 333.426 437.953 342.763 433.216 336.098C430.3 331.995 431.189 324.84 431.189 324.84C427.848 318.25 419.577 318.408 416.139 311.839C411.676 303.314 419.525 291.771 419.525 291.771C419.525 291.771 431.37 313.97 444.108 322.735C452.278 328.356 460.304 324.736 466.58 332.418C473.635 341.055 459.468 349.041 467.865 356.521C467.865 356.521 481.482 353.981 487.53 360.243C492.788 365.687 491.565 376.994 491.565 376.994Z" fill="#2BB7D0"/>
<path d="M498.207 387.997L480.547 391.202C480.547 391.202 487.083 378.815 487.789 369.114C488.559 358.53 479.218 350.397 483.083 341.64C485.028 337.234 489.794 338.96 490.773 333.87C492.286 326.009 478.51 326.298 479.044 318.058C479.372 312.986 484.521 308.093 484.521 308.093C486.076 300.833 479.641 295.481 481.109 288.174C483.013 278.69 496.233 275.042 496.233 275.042C496.233 275.042 491.447 299.885 495.732 315.029C498.48 324.741 506.889 327.279 506.9 337.316C506.912 348.601 491.072 345.344 492.834 356.63C492.834 356.63 504.852 363.695 505.575 372.495C506.203 380.144 498.207 387.997 498.207 387.997Z" fill="#2BB7D0"/>
<path d="M486.72 383.321L475.193 369.18C475.193 369.18 488.882 368.813 497.396 364.592C506.684 359.987 508.856 347.592 518.156 346.66C522.835 346.191 523.765 351.303 528.537 349.631C535.906 347.049 528.775 334.913 535.974 331.268C540.406 329.025 547.096 331.168 547.096 331.168C553.981 328.925 555.266 320.512 562.146 318.167C571.077 315.123 580.756 325.085 580.756 325.085C580.756 325.085 557.463 333.239 546.867 344.631C540.07 351.938 542.14 360.703 533.701 365.732C524.214 371.385 519.034 355.635 510.42 362.849C510.42 362.849 510.486 377.095 503.445 382.14C497.324 386.524 486.72 383.321 486.72 383.321Z" fill="#2BB7D0"/>
<path d="M999.565 583.994L988.038 598.135C988.038 598.135 985.311 584.321 979.794 576.422C973.776 567.805 961.542 567.756 959.035 558.49C957.773 553.828 962.502 551.997 960.074 547.449C956.325 540.426 945.953 549.763 941.216 543.098C938.3 538.995 939.189 531.84 939.189 531.84C935.848 525.25 927.577 525.408 924.139 518.839C919.676 510.314 927.525 498.771 927.525 498.771C927.525 498.771 939.37 520.97 952.108 529.735C960.278 535.356 968.304 531.736 974.58 539.418C981.635 548.055 967.468 556.041 975.865 563.521C975.865 563.521 989.482 560.981 995.53 567.243C1000.79 572.687 999.565 583.994 999.565 583.994Z" fill="#0C314C"/>
<path d="M1006.21 594.997L988.547 598.202C988.547 598.202 995.083 585.815 995.789 576.114C996.559 565.53 987.218 557.397 991.083 548.64C993.028 544.234 997.794 545.96 998.773 540.87C1000.29 533.009 986.51 533.298 987.044 525.058C987.372 519.986 992.521 515.093 992.521 515.093C994.076 507.833 987.641 502.481 989.109 495.174C991.013 485.69 1004.23 482.042 1004.23 482.042C1004.23 482.042 999.447 506.885 1003.73 522.029C1006.48 531.741 1014.89 534.279 1014.9 544.316C1014.91 555.602 999.072 552.344 1000.83 563.631C1000.83 563.631 1012.85 570.695 1013.57 579.495C1014.2 587.144 1006.21 594.997 1006.21 594.997Z" fill="#0C314C"/>
<path d="M994.72 590.321L983.193 576.18C983.193 576.18 996.882 575.813 1005.4 571.592C1014.68 566.987 1016.86 554.592 1026.16 553.66C1030.83 553.191 1031.77 558.303 1036.54 556.631C1043.91 554.049 1036.78 541.913 1043.97 538.268C1048.41 536.025 1055.1 538.168 1055.1 538.168C1061.98 535.925 1063.27 527.512 1070.15 525.167C1079.08 522.123 1088.76 532.085 1088.76 532.085C1088.76 532.085 1065.46 540.239 1054.87 551.631C1048.07 558.938 1050.14 567.703 1041.7 572.732C1032.21 578.385 1027.03 562.635 1018.42 569.849C1018.42 569.849 1018.49 584.095 1011.44 589.14C1005.32 593.524 994.72 590.321 994.72 590.321Z" fill="#0C314C"/>
<path d="M96.9973 256.457C104.033 250.547 109.421 244.059 113.012 237.175C114.184 234.922 113.681 232.519 111.631 230.582C109.571 228.637 106.25 227.475 102.748 227.475C101.865 227.475 100.974 227.548 100.1 227.691C98.5425 227.945 97.0354 228.228 95.6192 228.533L95.5727 228.542C87.0598 230.253 78.3311 233.243 66.1307 237.83L58 240.887L62.6501 235.472C67.5983 229.709 70.2139 223.143 70.2139 216.483C70.2139 209.823 67.5983 203.256 62.6501 197.491L58.0093 192.085L66.1294 195.132C77.8877 199.546 86.9097 202.622 95.5441 204.315L95.5865 204.323C97.1118 204.642 98.6753 204.926 100.234 205.17C101.059 205.298 101.901 205.364 102.735 205.364C106.204 205.364 109.499 204.204 111.549 202.263C113.612 200.311 114.114 197.896 112.927 195.635C109.307 188.745 103.976 182.322 97.0826 176.544L100.42 174C135.534 188.298 155.525 204.489 166.112 215.554L167 216.482L166.112 217.411C155.514 228.488 135.501 244.695 100.336 259L96.9973 256.457Z" fill="#0C314C"/>
<path d="M1196.13 397.457C1187.68 391.547 1181.2 385.059 1176.89 378.175C1175.48 375.922 1176.08 373.519 1178.54 371.582C1181.02 369.637 1185.01 368.475 1189.22 368.475C1190.28 368.475 1191.35 368.548 1192.4 368.691C1194.27 368.945 1196.09 369.228 1197.79 369.533L1197.84 369.542C1208.07 371.253 1218.57 374.243 1233.23 378.83L1243 381.887L1237.41 376.472C1231.46 370.709 1228.32 364.143 1228.32 357.483C1228.32 350.823 1231.46 344.256 1237.41 338.491L1242.99 333.085L1233.23 336.132C1219.1 340.546 1208.26 343.622 1197.88 345.315L1197.83 345.323C1195.99 345.642 1194.11 345.926 1192.24 346.17C1191.25 346.298 1190.24 346.364 1189.24 346.364C1185.07 346.364 1181.11 345.204 1178.64 343.263C1176.16 341.311 1175.56 338.896 1176.99 336.635C1181.34 329.745 1187.74 323.322 1196.03 317.544L1192.02 315C1149.82 329.298 1125.79 345.489 1113.07 356.554L1112 357.482L1113.07 358.411C1125.8 369.488 1149.86 385.695 1192.12 400L1196.13 397.457Z" fill="#0C314C"/>
<g filter="url(#filter0_d_3_156)">
<path d="M569.632 547.123C563.014 547.123 555.152 545.582 552.93 541.258C551.61 538.686 552.962 535.873 554.329 533.965C559.465 526.797 562.18 518.802 562.18 510.844C562.18 489.977 545.277 473 524.5 473C503.723 473 486.82 489.977 486.82 510.844C486.82 518.802 489.535 526.797 494.671 533.965C496.038 535.873 497.39 538.687 496.069 541.258C493.848 545.582 485.986 547.123 479.368 547.123C472.041 547.123 466.081 553.104 466.081 560.455C466.081 567.807 472.042 573.787 479.368 573.787C482.756 573.787 487.355 573.041 491.5 572.028C490.63 572.688 489.746 573.35 488.903 573.959C483.702 577.716 482.044 583.756 484.577 589.722C486.074 593.248 488.989 595.998 492.575 597.267C495.875 598.434 499.34 598.201 502.331 596.609C511.106 591.939 516.784 584.106 520.93 578.386C522.057 576.832 523.499 574.843 524.5 573.748C525.5 574.844 526.942 576.832 528.069 578.386C532.215 584.106 537.894 591.938 546.668 596.609C548.405 597.533 550.301 598 552.233 598C553.627 598 555.04 597.757 556.424 597.267C560.01 595.998 562.925 593.249 564.422 589.723C566.955 583.756 565.298 577.716 560.097 573.959C559.254 573.35 558.369 572.688 557.499 572.028C561.645 573.041 566.244 573.788 569.632 573.788C576.958 573.788 582.919 567.807 582.919 560.455C582.919 553.104 576.959 547.123 569.632 547.123ZM511.881 520.244C509.137 520.244 506.905 517.976 506.905 515.177C506.905 512.379 509.137 510.112 511.881 510.112C514.628 510.112 516.86 512.379 516.86 515.177C516.86 517.976 514.628 520.244 511.881 520.244ZM537.081 520.282C534.311 520.282 532.064 517.997 532.064 515.177C532.064 512.358 534.311 510.073 537.081 510.073C539.848 510.073 542.095 512.358 542.095 515.177C542.095 517.997 539.848 520.282 537.081 520.282Z" fill="#0C314C"/>
</g>
<g clip-path="url(#clip0_3_156)">
<path d="M265.249 485.574C271.397 472.389 260.843 454.893 241.222 445.744C232.795 441.814 223.977 440.06 216.039 440.685C212.008 433.258 206.754 426.454 200.402 420.611C206.119 415.616 211.008 409.188 214.186 402.373C223.403 382.606 214.678 367.766 201.943 361.827C189.208 355.889 172.232 358.744 163.015 378.511C159.837 385.326 158.056 393.203 157.903 400.793C149.344 399.683 140.755 400.032 132.474 401.718C127.85 395.235 120.839 389.607 112.412 385.678C92.7904 376.528 72.6043 379.689 66.4558 392.874C63.617 398.962 66.661 405.365 75.5037 411.905C80.5835 415.662 87.2655 419.282 93.482 422.365C87.0024 428.708 81.5327 436.293 77.4802 444.983C72.1779 456.354 68.8938 470.519 67.8909 485.259C63.6486 484.638 59.1881 484.502 54.7424 484.892C44.8153 485.76 35.6379 489.059 28.9009 494.181C21.5835 499.744 17.9043 506.818 18.5416 514.102C18.7928 516.972 20.1425 519.507 22.4452 521.434C23.4087 522.24 24.5299 522.932 25.7945 523.522C34.8925 527.765 51.4357 526.731 70.3426 525.025C70.5446 525.007 70.739 524.99 70.9387 524.972C75.936 546.19 86.0531 561.888 100.076 570.09L94.2051 582.68C93.1996 584.836 94.1327 587.4 96.2889 588.405C98.4451 589.41 101.009 588.477 102.014 586.321L107.885 573.731C123.182 579.201 141.71 576.861 161.176 567.05C161.291 567.215 161.403 567.376 161.519 567.542C172.366 583.122 182.207 596.458 191.305 600.701C192.569 601.29 193.82 601.705 195.057 601.925C198.013 602.45 200.823 601.854 203.183 600.202C215.1 591.857 214.707 571.429 202.289 553.695C199.729 550.039 196.759 546.709 193.556 543.859C204.203 533.615 212.943 521.995 218.245 510.624C222.298 501.933 224.592 492.868 225.286 483.827C231.644 486.607 238.712 489.399 244.855 490.875C255.549 493.445 262.41 491.661 265.249 485.574ZM210.436 506.982C209.792 508.362 209.083 509.75 208.324 511.143L179.081 497.506L176.466 467.61L212.777 454.394C218.753 470.961 218.449 489.797 210.436 506.982ZM165.068 555.03L152.625 520.841L175.054 505.136L203.801 518.54C194.534 532.214 180.498 545.625 165.068 555.03ZM80.7965 460.794L109.411 474.137L111.833 501.819L77.6443 514.262C74.9106 496.27 76.1982 476.746 80.7965 460.794ZM85.2891 448.625C93.0764 431.925 106.737 419.8 122.673 413.556L136.02 450.226L113.035 466.32L83.5886 452.589C84.1289 451.228 84.6936 449.902 85.2891 448.625ZM177.041 415.23C191.551 421.996 202.607 433.197 209.353 446.471L170.413 460.644L144.6 448.607L130.882 410.916C145.789 407.117 162.044 408.237 177.041 415.23ZM120.516 502.203L117.993 473.367L141.704 456.764L167.938 468.997L170.461 497.833L146.75 514.436L120.516 502.203ZM170.824 382.152C176.808 369.319 187.337 364.523 198.302 369.636C209.267 374.749 212.361 385.898 206.376 398.731C203.533 404.829 198.88 410.748 193.624 415.056C189.637 412.151 185.318 409.583 180.682 407.421C176.047 405.26 171.304 403.602 166.515 402.415C166.436 395.619 167.98 388.25 170.824 382.152ZM80.627 404.978C75.8274 401.428 73.4492 398.265 74.2647 396.516C78.2342 388.003 94.0359 386.616 108.77 393.487C114.588 396.2 119.686 399.944 123.395 404.142C115.204 406.865 107.472 410.94 100.559 416.232C93.8469 413.005 86.079 409.01 80.627 404.978ZM29.607 515.832C28.9717 515.536 28.4226 515.201 27.9745 514.826C27.2911 514.254 27.1625 513.779 27.1249 513.351C26.7545 509.12 29.237 504.747 34.1149 501.04C39.5738 496.89 47.1653 494.204 55.4932 493.475C59.61 493.115 63.7216 493.276 67.5694 493.925C67.5186 501.169 68.0169 508.446 69.102 515.502C69.1519 515.828 69.2087 516.148 69.2609 516.471C56.8851 517.587 37.1216 519.337 29.607 515.832ZM107.533 564.29C92.7513 557.397 83.635 541.472 79.286 522.834L115.841 509.53L144.142 522.727L157.447 559.282C140.375 567.93 122.315 571.183 107.533 564.29ZM195.231 558.636C204.556 571.954 205.934 587.756 198.241 593.143C197.889 593.39 197.441 593.597 196.565 593.441C189.185 592.128 176.466 573.931 168.765 562.871C169.047 562.702 169.328 562.541 169.61 562.37C175.712 558.666 181.607 554.369 187.124 549.674C190.095 552.204 192.861 555.251 195.231 558.636ZM225.435 474.463C225.046 465.765 223.197 457.223 220.018 449.198C225.618 449.341 231.763 450.839 237.581 453.553C252.315 460.423 261.409 473.419 257.44 481.932C256.624 483.681 252.673 483.892 246.868 482.497C240.275 480.913 232.221 477.53 225.435 474.463Z" fill="#2BB7D0"/>
<path d="M177.041 415.23C191.551 421.996 202.607 433.197 209.353 446.471L170.413 460.644L144.6 448.607L130.882 410.916C145.789 407.117 162.044 408.237 177.041 415.23Z" fill="#2BB7D0"/>
<path d="M210.436 506.982C209.792 508.362 209.083 509.75 208.324 511.143L179.081 497.506L176.466 467.61L212.777 454.394C218.753 470.961 218.449 489.797 210.436 506.982Z" fill="#2BB7D0"/>
<path d="M120.516 502.203L117.993 473.367L141.704 456.764L167.938 468.997L170.461 497.833L146.75 514.436L120.516 502.203Z" fill="#2BB7D0"/>
<path d="M165.068 555.03L152.625 520.841L175.054 505.136L203.801 518.54C194.534 532.214 180.498 545.625 165.068 555.03Z" fill="#2BB7D0"/>
<path d="M85.2891 448.625C93.0764 431.925 106.737 419.8 122.673 413.556L136.02 450.226L113.035 466.32L83.5886 452.589C84.1289 451.228 84.6936 449.902 85.2891 448.625Z" fill="#2BB7D0"/>
<path d="M80.7965 460.794L109.411 474.137L111.833 501.819L77.6443 514.262C74.9106 496.27 76.1982 476.746 80.7965 460.794Z" fill="#2BB7D0"/>
<path d="M107.533 564.29C92.7513 557.397 83.635 541.472 79.286 522.834L115.841 509.53L144.142 522.727L157.447 559.282C140.375 567.93 122.315 571.183 107.533 564.29Z" fill="#2BB7D0"/>
<path d="M195.231 558.636C204.556 571.954 205.934 587.756 198.241 593.143C197.889 593.39 197.441 593.597 196.565 593.441C189.185 592.128 176.466 573.931 168.765 562.871C169.047 562.702 169.328 562.541 169.61 562.37C175.712 558.666 181.607 554.369 187.124 549.674C190.095 552.204 192.861 555.251 195.231 558.636Z" fill="#2BB7D0"/>
<path d="M225.435 474.463C225.046 465.765 223.197 457.223 220.018 449.198C225.618 449.341 231.763 450.839 237.581 453.553C252.315 460.423 261.409 473.419 257.44 481.932C256.624 483.681 252.673 483.892 246.868 482.497C240.275 480.913 232.221 477.53 225.435 474.463Z" fill="#2BB7D0"/>
<path d="M170.824 382.152C176.808 369.319 187.337 364.523 198.302 369.636C209.267 374.749 212.361 385.898 206.376 398.731C203.533 404.829 198.88 410.748 193.624 415.056C189.637 412.151 185.318 409.583 180.682 407.421C176.047 405.26 171.304 403.602 166.515 402.415C166.436 395.619 167.98 388.25 170.824 382.152Z" fill="#2BB7D0"/>
<path d="M80.627 404.978C75.8274 401.428 73.4492 398.265 74.2647 396.516C78.2342 388.003 94.0359 386.616 108.77 393.487C114.588 396.2 119.686 399.944 123.395 404.142C115.204 406.865 107.472 410.94 100.559 416.232C93.8469 413.005 86.079 409.01 80.627 404.978Z" fill="#2BB7D0"/>
<path d="M29.607 515.832C28.9717 515.536 28.4226 515.201 27.9745 514.826C27.2911 514.254 27.1625 513.779 27.1249 513.351C26.7545 509.12 29.237 504.747 34.1149 501.04C39.5738 496.89 47.1653 494.204 55.4932 493.475C59.61 493.115 63.7216 493.276 67.5694 493.925C67.5186 501.169 68.0169 508.446 69.102 515.502C69.1519 515.828 69.2087 516.148 69.2609 516.471C56.8851 517.587 37.1216 519.337 29.607 515.832Z" fill="#2BB7D0"/>
</g>
<path d="M835.714 393.023L835.658 393.049C834.137 393.759 832.319 393.052 831.703 391.491C829.19 385.131 829.142 380.87 829.096 376.734C829.048 372.45 829.003 368.405 825.82 361.579C822.637 354.753 819.567 352.119 816.317 349.329C812.733 346.253 809.026 343.072 805.303 335.088C801.581 327.105 801.527 322.222 801.474 317.499C801.426 313.216 801.381 309.17 798.199 302.345L803.564 299.843C807.287 307.826 807.341 312.71 807.393 317.433C807.441 321.716 807.486 325.762 810.668 332.587C813.851 339.413 816.921 342.047 820.172 344.837C823.756 347.913 827.463 351.094 831.186 359.078C834.908 367.061 834.963 371.945 835.015 376.668C835.057 380.398 835.096 383.948 837.207 389.31C837.772 390.744 837.112 392.371 835.714 393.023Z" fill="#2384B1"/>
<path d="M850.657 368.503L850.603 368.528C849.173 369.195 847.475 368.606 846.755 367.203C843.15 360.176 839.934 356.94 836.549 353.533C832.588 349.547 828.493 345.426 823.936 335.653C819.38 325.88 818.854 320.093 818.347 314.497C817.864 309.173 817.408 304.144 813.287 295.309L818.652 292.807C823.209 302.58 823.734 308.367 824.241 313.963C824.724 319.287 825.181 324.316 829.301 333.152C833.421 341.988 836.98 345.569 840.747 349.361C844.318 352.954 847.997 356.657 852.025 364.509C852.784 365.986 852.162 367.801 850.657 368.503Z" fill="#2384B1"/>
<path d="M820.48 382.575L820.427 382.6C818.997 383.266 817.299 382.678 816.579 381.275C812.974 374.248 809.757 371.011 806.373 367.604C802.412 363.619 798.317 359.497 793.76 349.724C789.203 339.951 788.678 334.165 788.17 328.569C787.688 323.245 787.231 318.215 783.111 309.38L788.476 306.879C793.032 316.651 793.558 322.438 794.065 328.034C794.548 333.358 795.004 338.387 799.125 347.223C803.244 356.059 806.804 359.64 810.571 363.433C814.142 367.025 817.821 370.728 821.849 378.58C822.608 380.058 821.986 381.873 820.48 382.575Z" fill="#2384B1"/>
<path d="M798.329 374.535L798.274 374.561C796.876 375.213 795.204 374.672 794.469 373.317C791.712 368.238 789.014 365.92 786.179 363.483C782.592 360.4 778.883 357.212 775.154 349.216C771.426 341.22 771.368 336.33 771.312 331.6C771.261 327.309 771.213 323.256 768.023 316.416L773.388 313.914C777.116 321.911 777.174 326.801 777.23 331.53C777.281 335.822 777.329 339.874 780.519 346.714C783.708 353.555 786.783 356.197 790.037 358.994C793.18 361.696 796.416 364.477 799.678 370.504C800.477 371.979 799.85 373.826 798.329 374.535Z" fill="#2384B1"/>
<path d="M858.682 346.392L858.626 346.418C857.228 347.07 855.557 346.53 854.821 345.174C852.064 340.095 849.366 337.777 846.531 335.34C842.944 332.257 839.236 329.069 835.507 321.073C831.778 313.077 831.72 308.187 831.664 303.458C831.613 299.166 831.565 295.113 828.375 288.273L833.74 285.771C837.468 293.767 837.526 298.658 837.583 303.387C837.634 307.678 837.681 311.731 840.872 318.571C844.061 325.412 847.135 328.054 850.389 330.851C853.532 333.553 856.769 336.334 860.03 342.36C860.829 343.837 860.203 345.682 858.682 346.392Z" fill="#2384B1"/>
<path d="M837.475 286.339L759.017 322.925L748.628 309.4L834.127 269.531L837.475 286.339Z" fill="#2384B1"/>
<path d="M764.098 227.992C748.23 235.322 736.702 247.772 731.575 262.291C727.174 274.752 727.49 288.733 733.825 302.319C735.164 305.184 736.703 307.89 738.417 310.427C740.035 312.819 743.138 313.692 745.751 312.474L840.226 268.417C842.833 267.204 844.17 264.277 843.381 261.514C842.396 258.053 841.076 254.628 839.402 251.286C833.001 238.48 822.796 229.774 810.884 225.324C796.551 219.965 779.741 220.764 764.098 227.992Z" fill="#2384B1"/>
<path d="M810.884 225.324L802.151 238.684L784.514 236.572L774.797 251.437L757.164 249.326L747.446 264.191L731.575 262.292C736.702 247.772 748.23 235.322 764.098 227.992C779.741 220.764 796.551 219.965 810.884 225.324Z" fill="#2384B1"/>
<g clip-path="url(#clip1_3_156)">
<path d="M390.295 511.868L349.88 488.534L326.547 528.949L366.962 552.282L390.295 511.868Z" fill="white" fill-opacity="0.01"/>
<path d="M367.327 524.427C371.512 526.843 376.863 525.41 379.279 521.225C381.696 517.039 380.262 511.688 376.077 509.272C371.892 506.856 366.54 508.289 364.124 512.475C361.708 516.66 363.142 522.011 367.327 524.427Z" fill="white" stroke="white" stroke-width="4" stroke-linecap="round" stroke-linejoin="round"/>
<path d="M344.428 521.311C347.683 523.19 351.846 522.075 353.725 518.82C355.604 515.564 354.489 511.402 351.234 509.523C347.979 507.644 343.817 508.759 341.937 512.014C340.058 515.269 341.173 519.431 344.428 521.311Z" fill="white" stroke="white" stroke-width="4" stroke-linecap="round" stroke-linejoin="round"/>
<path d="M353.881 537.994C356.206 539.336 359.179 538.54 360.521 536.215C361.864 533.89 361.067 530.917 358.742 529.574C356.417 528.232 353.444 529.029 352.102 531.354C350.759 533.679 351.556 536.652 353.881 537.994Z" fill="white" stroke="white" stroke-width="4" stroke-linecap="round" stroke-linejoin="round"/>
</g>
<g clip-path="url(#clip2_3_156)">
<path d="M395.415 476.333L355 453L331.667 493.415L372.081 516.748L395.415 476.333Z" fill="white" fill-opacity="0.01"/>
<path d="M372.446 488.893C376.631 491.309 381.983 489.875 384.399 485.69C386.815 481.505 385.381 476.154 381.196 473.738C377.011 471.321 371.66 472.755 369.244 476.94C366.827 481.125 368.261 486.477 372.446 488.893Z" fill="white" stroke="white" stroke-width="4" stroke-linecap="round" stroke-linejoin="round"/>
<path d="M349.548 485.776C352.803 487.656 356.965 486.54 358.845 483.285C360.724 480.03 359.609 475.868 356.354 473.989C353.099 472.109 348.936 473.225 347.057 476.48C345.178 479.735 346.293 483.897 349.548 485.776Z" fill="white" stroke="white" stroke-width="4" stroke-linecap="round" stroke-linejoin="round"/>
<path d="M359 502.46C361.326 503.802 364.299 503.006 365.641 500.681C366.983 498.356 366.187 495.383 363.862 494.04C361.537 492.698 358.564 493.494 357.221 495.82C355.879 498.145 356.675 501.118 359 502.46Z" fill="white" stroke="white" stroke-width="4" stroke-linecap="round" stroke-linejoin="round"/>
</g>
<g clip-path="url(#clip3_3_156)">
<path d="M1062 451.333H1015.33V498H1062V451.333Z" fill="white" fill-opacity="0.01"/>
<path d="M1048.39 473.694C1053.22 473.694 1057.14 469.777 1057.14 464.944C1057.14 460.112 1053.22 456.194 1048.39 456.194C1043.56 456.194 1039.64 460.112 1039.64 464.944C1039.64 469.777 1043.56 473.694 1048.39 473.694Z" fill="white" stroke="white" stroke-width="4" stroke-linecap="round" stroke-linejoin="round"/>
<path d="M1027 482.444C1030.76 482.444 1033.81 479.398 1033.81 475.639C1033.81 471.88 1030.76 468.833 1027 468.833C1023.24 468.833 1020.19 471.88 1020.19 475.639C1020.19 479.398 1023.24 482.444 1027 482.444Z" fill="white" stroke="white" stroke-width="4" stroke-linecap="round" stroke-linejoin="round"/>
<path d="M1043.53 492.167C1046.21 492.167 1048.39 489.99 1048.39 487.306C1048.39 484.621 1046.21 482.444 1043.53 482.444C1040.84 482.444 1038.67 484.621 1038.67 487.306C1038.67 489.99 1040.84 492.167 1043.53 492.167Z" fill="white" stroke="white" stroke-width="4" stroke-linecap="round" stroke-linejoin="round"/>
</g>
<g clip-path="url(#clip4_3_156)">
<path d="M1048.67 418H1002V464.667H1048.67V418Z" fill="white" fill-opacity="0.01"/>
<path d="M1035.06 440.361C1039.89 440.361 1043.81 436.444 1043.81 431.611C1043.81 426.779 1039.89 422.861 1035.06 422.861C1030.22 422.861 1026.31 426.779 1026.31 431.611C1026.31 436.444 1030.22 440.361 1035.06 440.361Z" fill="white" stroke="white" stroke-width="4" stroke-linecap="round" stroke-linejoin="round"/>
<path d="M1013.67 449.111C1017.43 449.111 1020.47 446.064 1020.47 442.306C1020.47 438.547 1017.43 435.5 1013.67 435.5C1009.91 435.5 1006.86 438.547 1006.86 442.306C1006.86 446.064 1009.91 449.111 1013.67 449.111Z" fill="white" stroke="white" stroke-width="4" stroke-linecap="round" stroke-linejoin="round"/>
<path d="M1030.19 458.833C1032.88 458.833 1035.06 456.657 1035.06 453.972C1035.06 451.288 1032.88 449.111 1030.19 449.111C1027.51 449.111 1025.33 451.288 1025.33 453.972C1025.33 456.657 1027.51 458.833 1030.19 458.833Z" fill="white" stroke="white" stroke-width="4" stroke-linecap="round" stroke-linejoin="round"/>
</g>
<defs>
<filter id="filter0_d_3_156" x="458" y="473" width="133" height="133" filterUnits="userSpaceOnUse" color-interpolation-filters="sRGB">
<feFlood flood-opacity="0" result="BackgroundImageFix"/>
<feColorMatrix in="SourceAlpha" type="matrix" values="0 0 0 0 0 0 0 0 0 0 0 0 0 0 0 0 0 0 127 0" result="hardAlpha"/>
<feOffset dy="4"/>
<feGaussianBlur stdDeviation="2"/>
<feComposite in2="hardAlpha" operator="out"/>
<feColorMatrix type="matrix" values="0 0 0 0 0 0 0 0 0 0 0 0 0 0 0 0 0 0 0.25 0"/>
<feBlend mode="normal" in2="BackgroundImageFix" result="effect1_dropShadow_3_156"/>
<feBlend mode="normal" in="SourceGraphic" in2="effect1_dropShadow_3_156" result="shape"/>
</filter>
<clipPath id="clip0_3_156">
<rect width="250" height="250" fill="white" transform="translate(88.6545 309) rotate(25)"/>
</clipPath>
<clipPath id="clip1_3_156">
<rect width="46.6667" height="46.6667" fill="white" transform="translate(349.88 488.534) rotate(30)"/>
</clipPath>
<clipPath id="clip2_3_156">
<rect width="46.6667" height="46.6667" fill="white" transform="translate(355 453) rotate(30)"/>
</clipPath>
<clipPath id="clip3_3_156">
<rect width="46.6667" height="46.6667" fill="white" transform="translate(1015.33 451.333)"/>
</clipPath>
<clipPath id="clip4_3_156">
<rect width="46.6667" height="46.6667" fill="white" transform="translate(1002 418)"/>
</clipPath>
</defs>
</svg>
